<svg xmlns="http://www.w3.org/2000/svg" fill="#000000" height="800" width="800" viewBox="0 0 332.637 332.637" xmlns:v="https://vecta.io/nano"><path d="M138.146 117.958c27.193 0 49.316-22.123 49.316-49.316s-22.123-49.315-49.316-49.315S88.83 41.449 88.83 68.642s22.123 49.316 49.316 49.316zm0-82.632c18.371 0 33.316 14.945 33.316 33.315s-14.946 33.316-33.316 33.316-33.316-14.944-33.316-33.315 14.946-33.316 33.316-33.316zm186.491 261.983h-72.916l5.075-89.512a8 8 0 0 0-7.987-8.453h-56.86a8 8 0 0 0-5.814 2.505c-1.511 1.6-2.297 3.75-2.173 5.946l.822 14.54c.249 4.411 4.034 7.783 8.438 7.536a8 8 0 0 0 7.536-8.438l-.344-6.089h39.929l-4.646 81.965h-49.889c8.672-9.762 14.507-23.315 15.776-38.745a8 8 0 0 0-7.973-8.656h-82.923a8 8 0 0 0-5.885 2.581c-1.515 1.645-2.272 3.848-2.088 6.076 1.273 15.431 7.109 28.982 15.782 38.744H94.819a8 8 0 1 0 0 16h56.932l.399.002.4-.002h172.087a8 8 0 0 0 0-16zm-172.182 0h-.611c-14.554-.183-27.417-13.361-31.792-31.401h64.194c-4.369 18.04-17.233 31.218-31.791 31.401zm-34.267-135.702c-32.625 0-54.361 19.259-72.678 64.396l-30.094 74.165c-1.262 3.109-4.255 4.994-7.416 4.994-1.001 0-2.02-.189-3.005-.589A8 8 0 0 1 .59 294.152l30.094-74.165c9.258-22.814 19.022-38.959 30.727-50.809 15.451-15.641 34.553-23.571 56.777-23.571h39.915c18.661 0 35.16 5.588 49.036 16.608a8 8 0 0 1-9.95 12.529c-11.132-8.84-23.917-13.138-39.086-13.138h-39.915zm41.962 33.521v27.448a8 8 0 1 1-16 0v-27.448a8 8 0 1 1 16 0z"/></svg>