<svg xmlns="http://www.w3.org/2000/svg" fill="#000000" height="800" width="800" viewBox="0 0 380.347 380.347" xmlns:v="https://vecta.io/nano"><path d="M144.623 204.001a8 8 0 0 1 8-8h1.328a8 8 0 1 1 0 16h-1.328a8 8 0 0 1-8-8zM291.112 97.612l-18.135 241.416v33.319a8 8 0 0 1-8 8H115.372a8 8 0 0 1-8-8v-33.319L89.235 97.612a8 8 0 0 1 7.978-8.599h139.213l6.13-81.612a8 8 0 0 1 8.577-7.378 8 8 0 0 1 7.378 8.577l-6.041 80.414h30.664a8 8 0 0 1 7.978 8.598zm-34.135 249.116H123.372v17.619h133.605v-17.619zm17.534-241.715h-23.242L236.9 296.297c-.332 4.406-4.169 7.698-8.577 7.378a8 8 0 0 1-7.378-8.577l14.279-190.086H105.836l3.344 44.508h95.455a8 8 0 1 1 0 16h-94.253l12.411 165.207h134.763l16.955-225.714zm-93.563 137.469h-1.33a8 8 0 0 0 0 16h1.33a8 8 0 0 0 0-16zM155.281 287.7h-1.33a8 8 0 1 0 0 16h1.33a8 8 0 1 0 0-16z"/></svg>