<svg xmlns="http://www.w3.org/2000/svg" fill="#000000" height="800" width="800" viewBox="0 0 304.755 304.755" xmlns:v="https://vecta.io/nano"><path d="M137.549 119.123a88.69 88.69 0 0 0-6.886 12.903c-13.935 32.282-7.306 69.635 16.887 95.158 1.505 1.589 3.596 2.491 5.784 2.497h.247a87.66 87.66 0 0 0 78.113-47.737c.052-.097.102-.194.149-.293.82-1.617 1.594-3.269 2.319-4.949 1.935-4.479 3.506-9.143 4.669-13.858a8 8 0 0 0-2.167-7.629c-12.158-11.92-26.417-21.458-42.379-28.35-15.97-6.893-32.692-10.727-49.703-11.396a8.03 8.03 0 0 0-7.033 3.654zm11.079 12.609c13.428 1.051 26.631 4.348 39.316 9.822s24.135 12.821 34.112 21.872c-.691 2.191-1.489 4.355-2.386 6.473-13.561-1.014-26.896-4.32-39.714-9.854-3.409-1.47-6.8-3.114-10.079-4.889-3.885-2.101-8.741-.656-10.843 3.229s-.658 8.74 3.228 10.844a142.67 142.67 0 0 0 11.356 5.508c12.079 5.215 24.582 8.677 37.314 10.343a71.67 71.67 0 0 1-54.093 28.528c-17.872-20.757-22.422-49.907-11.489-75.238a73.8 73.8 0 0 1 3.278-6.638zm57.15-88.874a8 8 0 0 1 8-8h1.33a8 8 0 1 1 0 16h-1.33a8 8 0 0 1-8-8zm28.608 79.124c15.775 0 28.608-12.833 28.608-28.607s-12.833-28.606-28.608-28.606-28.608 12.833-28.608 28.606 12.833 28.607 28.608 28.607zm0-41.214c6.952 0 12.608 5.655 12.608 12.606s-5.656 12.607-12.608 12.607-12.608-5.655-12.608-12.607 5.655-12.606 12.608-12.606zm22.393-37.905a8 8 0 0 1 8-8h1.33a8 8 0 1 1 0 16h-1.33a8 8 0 0 1-8-8zM37.882 72.765a8 8 0 0 1 8-8h1.328a8 8 0 1 1 0 16h-1.328a8 8 0 0 1-8-8zm67.963-7.778c11.523-2.68 25.013 4.138 36.687 11.16 7.674 4.616 16.067 9.666 23.709 9.665 3.23 0 6.327-.902 9.177-3.12 7.188-5.596 10.232-15.18 8.573-26.986-2.609-18.573-17.704-43.558-37.54-51.533C122.578-5.424 94.75 1.94 78.784 22.079 65.81 38.44 67.82 49.348 71.79 55.619c5.796 9.154 19.161 12.832 34.055 9.368zM91.321 32.02c11.597-14.629 31.814-19.977 49.163-13.002C154.348 24.592 166.19 44 168.148 57.932c.374 2.66.876 9.007-2.233 11.86-2.973-.04-11.445-5.137-15.135-7.356-11.875-7.143-25.53-14.053-39.523-14.053-3.001 0-6.018.318-9.035 1.02-8.307 1.931-15.246.287-16.913-2.344-1.212-1.912-.364-6.999 6.012-15.039zm210.306 264.735a8 8 0 0 1-8 8H11.128a8 8 0 1 1 0-16h282.499a8 8 0 0 1 8 8zM4.936 120.474V73.995a8 8 0 1 1 16 0v46.479c0 72.477 58.964 131.44 131.441 131.44s131.439-58.964 131.439-131.44V73.995a8 8 0 1 1 16 0v46.479c0 81.299-66.141 147.44-147.439 147.44S4.936 201.773 4.936 120.474zm102.29 81.883a8 8 0 1 1 0 16h-1.33a8 8 0 1 1 0-16h1.33zm-41.928-24.221c8.395 6.313 15.191 8.451 20.547 8.451 4.271 0 7.625-1.359 10.141-3.044 8.247-5.522 11.331-17.739 7.854-31.124-2.518-9.698 3.066-21.45 8.86-31.667 5.666-9.99 12.089-21.314 4.9-30.076-5.298-6.458-14.093-9.038-24.764-7.258-16.488 2.747-38.413 16.79-45.083 34.687-8.027 21.543-.812 46.23 17.545 60.031zm-2.553-54.444c4.031-10.813 19.321-22.258 32.721-24.491.894-.149 2.3-.332 3.8-.332 1.969 0 4.101.315 5.45 1.44-.393 2.781-4.229 9.546-5.934 12.551-7.375 13.005-14.382 28.353-10.429 43.58 1.846 7.107.42 12.676-1.27 13.809-1.203.802-5.435.164-12.169-4.899-12.735-9.577-17.739-26.707-12.169-41.658z"/></svg>